<svg width="24" height="24" viewBox="0 0 24 24" fill="none" xmlns="http://www.w3.org/2000/svg">
    <path d="M22.5479 10.561H5.43693C5.33333 10.56 5.24098 10.4955 5.20446 10.3985C5.16793 10.3016 5.19474 10.1921 5.27193 10.123L13.9089 2.52304C14.4733 1.99092 14.5148 1.10738 14.0027 0.524723C13.4907 -0.0579313 12.6091 -0.130302 12.0089 0.361043L0.82793 10.2C0.311329 10.6556 0.0153809 11.3112 0.0153809 12C0.0153809 12.6888 0.311329 13.3444 0.82793 13.8L12.0069 23.637C12.6074 24.1221 13.4835 24.0473 13.9932 23.4676C14.5029 22.888 14.4648 22.0095 13.9069 21.476L5.26993 13.876C5.19274 13.8069 5.16593 13.6975 5.20246 13.6005C5.23898 13.5036 5.33133 13.439 5.43493 13.438H22.5479C23.3282 13.4175 23.95 12.7791 23.95 11.9985C23.95 11.218 23.3282 10.5796 22.5479 10.559V10.561Z" fill="#828489"/>
</svg>
