<svg viewBox="0 0 24 24" fill="none" xmlns="http://www.w3.org/2000/svg">
    <path
        d="M23.663 6.49248C23.7449 6.20412 23.6822 5.8956 23.4934 5.65792C23.3047 5.42025 23.0114 5.28054 22.7 5.28H5.54703C5.42732 5.28132 5.32358 5.20068 5.30003 5.088L4.72803 2.4768C4.40666 1.03721 3.08464 0.00655545 1.55103 0C0.860669 0 0.301025 0.537258 0.301025 1.2C0.301025 1.86274 0.860669 2.4 1.55103 2.4C1.90645 2.40158 2.21219 2.64183 2.28403 2.976L5.45003 17.4422C5.6142 18.1839 6.05389 18.8428 6.68703 19.296C6.74777 19.3394 6.78461 19.407 6.78714 19.4797C6.78967 19.5524 6.75761 19.6222 6.70003 19.6694C5.91401 20.3223 5.77997 21.4444 6.39162 22.2512C7.00326 23.058 8.15669 23.2805 9.04551 22.7632C9.93434 22.2459 10.2623 21.1613 9.80002 20.2675C9.76099 20.1933 9.76516 20.1048 9.81103 20.0342C9.85705 19.9639 9.93747 19.9211 10.024 19.921H15.994C16.0805 19.921 16.1608 19.9639 16.2064 20.0344C16.252 20.105 16.2564 20.1931 16.218 20.2675C15.911 20.8624 15.9458 21.5672 16.3101 22.1315C16.6744 22.6958 17.3165 23.0393 18.008 23.04C18.7021 23.0396 19.3464 22.6939 19.7102 22.1264C20.074 21.559 20.1054 20.851 19.793 20.256C19.7551 20.1843 19.7588 20.0988 19.8026 20.0303C19.8465 19.9617 19.9242 19.92 20.008 19.92C20.6984 19.92 21.258 19.3827 21.258 18.72C21.258 18.0573 20.6984 17.52 20.008 17.52H8.63103C8.27688 17.519 7.97133 17.2812 7.89703 16.9488L7.71803 16.128C7.70301 16.0574 7.72185 15.984 7.76934 15.9282C7.81683 15.8724 7.88794 15.84 7.96303 15.84H18.717C20.0699 15.8398 21.2552 14.9704 21.611 13.7174L23.663 6.49248Z"
        fill="currentColor"
    />
</svg>
