<svg width="27" height="27" viewBox="0 0 27 27" fill="none" xmlns="http://www.w3.org/2000/svg">
    <path d="M26.0001 26H10.0001M19.1854 17.8533L9.28542 7.95067M1.85742 14.8093L14.1148 2.552C14.6148 2.05208 15.293 1.77124 16.0001 1.77124C16.7072 1.77124 17.3853 2.05208 17.8854 2.552L24.4854 9.152C24.9853 9.65208 25.2662 10.3302 25.2662 11.0373C25.2662 11.7444 24.9853 12.4226 24.4854 12.9227L12.1614 25.2467C11.6791 25.729 11.0249 26 10.3428 26C9.66063 26 9.00643 25.729 8.52409 25.2467L1.85742 18.58C1.3575 18.0799 1.07666 17.4018 1.07666 16.6947C1.07666 15.9876 1.3575 15.3094 1.85742 14.8093Z" stroke="black" stroke-width="2" stroke-linecap="round" stroke-linejoin="round"/>
</svg>
