<svg width="20" height="20" viewBox="0 0 20 20" fill="none" xmlns="http://www.w3.org/2000/svg">
<path fill-rule="evenodd" clip-rule="evenodd" d="M15.75 5.79074C17.0735 6.62566 18.2787 7.63469 19.3333 8.79074C19.9509 9.47644 19.9534 10.5171 19.3392 11.2057C17.2042 13.5524 13.6767 16.0391 10.13 16.0391H9.88C8.64289 16.0176 7.42225 15.7517 6.28833 15.2566L2.83333 18.7116C2.55228 18.9916 2.11273 19.0347 1.78265 18.8145C1.45258 18.5943 1.32352 18.172 1.47416 17.8049C1.47775 17.8013 1.48182 17.7992 1.48586 17.7971C1.48932 17.7952 1.49275 17.7934 1.49583 17.7907L17.7458 1.54074C17.8121 1.47218 17.8614 1.38916 17.89 1.29824L17.905 1.28324C18.1142 1.06661 18.4241 0.979726 18.7154 1.05599C19.0068 1.13225 19.2343 1.35979 19.3106 1.65115C19.3868 1.9425 19.3 2.25234 19.0833 2.46157L15.75 5.79074ZM11.0942 13.5816C12.2919 13.203 13.2267 12.2594 13.5942 11.0582C13.8538 10.2163 13.7942 9.30817 13.4267 8.5074C13.397 8.44576 13.3391 8.40246 13.2716 8.39135C13.2041 8.38023 13.1354 8.4027 13.0875 8.45157L8.45416 13.0841C8.40573 13.1322 8.38364 13.2009 8.3949 13.2683C8.40616 13.3357 8.44937 13.3934 8.51083 13.4232C9.32214 13.796 10.2434 13.8525 11.0942 13.5816Z" fill="#444857"/>
<path d="M6.34586 11.1665C6.39789 11.1141 6.41735 11.0375 6.39669 10.9665C6.30402 10.6525 6.25468 10.3273 6.25003 9.99987C6.25003 7.92881 7.92896 6.24987 10 6.24987C10.3273 6.2533 10.6526 6.30181 10.9667 6.39404C11.0378 6.41449 11.1144 6.3947 11.1667 6.34237L12.7842 4.72404C12.8362 4.67209 12.8576 4.59687 12.8406 4.52533C12.8236 4.4538 12.7707 4.39621 12.7009 4.37321C11.8281 4.0931 10.9166 3.95304 10 3.95821C6.41669 3.90987 2.83336 6.41654 0.677525 8.79071C0.0508164 9.4735 0.0482866 10.5216 0.671692 11.2074C1.53269 12.15 2.4933 12.9967 3.53669 13.7324C3.62125 13.7908 3.73545 13.7807 3.80836 13.7082L6.34586 11.1665Z" fill="#444857"/>
</svg>
