<svg width="32" height="32" viewBox="0 0 32 32" fill="none" xmlns="http://www.w3.org/2000/svg">
    <path d="M18.656 22.6667H22.656M22.656 22.6667H26.656M22.656 22.6667V18.6667M22.656 22.6667V26.6667" stroke="black" stroke-width="2" stroke-linecap="round" stroke-linejoin="round"/>
    <path d="M5.33325 12.5333V6.13334C5.33325 5.92117 5.41754 5.71769 5.56757 5.56766C5.7176 5.41763 5.92108 5.33334 6.13325 5.33334H12.5333C12.7454 5.33334 12.9489 5.41763 13.0989 5.56766C13.249 5.71769 13.3333 5.92117 13.3333 6.13334V12.5333C13.3333 12.7455 13.249 12.949 13.0989 13.099C12.9489 13.2491 12.7454 13.3333 12.5333 13.3333H6.13325C5.92108 13.3333 5.7176 13.2491 5.56757 13.099C5.41754 12.949 5.33325 12.7455 5.33325 12.5333ZM5.33325 25.8667V19.4667C5.33325 19.2545 5.41754 19.051 5.56757 18.901C5.7176 18.751 5.92108 18.6667 6.13325 18.6667H12.5333C12.7454 18.6667 12.9489 18.751 13.0989 18.901C13.249 19.051 13.3333 19.2545 13.3333 19.4667V25.8667C13.3333 26.0789 13.249 26.2823 13.0989 26.4324C12.9489 26.5824 12.7454 26.6667 12.5333 26.6667H6.13325C5.92108 26.6667 5.7176 26.5824 5.56757 26.4324C5.41754 26.2823 5.33325 26.0789 5.33325 25.8667ZM18.6666 12.5333V6.13334C18.6666 5.92117 18.7509 5.71769 18.9009 5.56766C19.0509 5.41763 19.2544 5.33334 19.4666 5.33334H25.8666C26.0788 5.33334 26.2822 5.41763 26.4323 5.56766C26.5823 5.71769 26.6666 5.92117 26.6666 6.13334V12.5333C26.6666 12.7455 26.5823 12.949 26.4323 13.099C26.2822 13.2491 26.0788 13.3333 25.8666 13.3333H19.4666C19.2544 13.3333 19.0509 13.2491 18.9009 13.099C18.7509 12.949 18.6666 12.7455 18.6666 12.5333Z" stroke="black" stroke-width="2"/>
</svg>
