<svg width="116" height="116" viewBox="0 0 116 116" fill="none" xmlns="http://www.w3.org/2000/svg">
    <path d="M49.1221 113.119C53.1261 113.119 56.3721 109.873 56.3721 105.869C56.3721 101.865 53.1261 98.6193 49.1221 98.6193C45.118 98.6193 41.8721 101.865 41.8721 105.869C41.8721 109.873 45.118 113.119 49.1221 113.119Z" fill="#0E3A90"/>
    <path fill-rule="evenodd" clip-rule="evenodd" d="M97.6342 57.5408C101.913 57.616 105.64 60.4782 106.818 64.5927L115.527 92.5777C116.366 95.2674 116.014 98.1875 114.561 100.601C113.158 102.991 110.64 104.509 107.871 104.632C107.403 104.674 106.981 104.347 106.905 103.883C105.99 98.0947 101.033 93.8112 95.1731 93.7466C89.3136 93.682 84.2628 97.8553 83.2212 103.622C83.112 104.206 82.6158 104.638 82.0225 104.666H62.0898C61.4973 104.636 61.002 104.205 60.8912 103.622C59.8355 97.9182 54.8544 93.784 49.0539 93.7971C43.2535 93.8101 38.2911 97.9667 37.261 103.675C37.1462 104.238 36.6511 104.642 36.0768 104.642H34.5833C29.9119 104.642 26.125 100.855 26.125 96.1833V70.876C26.1234 70.5357 26.266 70.2106 26.5175 69.9812C26.7689 69.7519 27.1058 69.6397 27.4445 69.6725C28.4498 69.7643 29.4648 69.8175 30.4943 69.8175C44.2389 69.798 56.8028 62.0451 62.984 49.7688C63.1891 49.3555 63.6101 49.0935 64.0715 49.0922H75.6715C79.9858 49.094 83.6773 52.1906 84.4295 56.4388C84.4809 57.049 84.9823 57.5233 85.5943 57.5408H97.6342ZM97.6729 67.9615C97.5091 67.4693 97.0461 67.1391 96.5274 67.1447L85.3865 67.2027C84.7211 67.2053 84.183 67.7455 84.183 68.411V75.661C84.183 76.3283 84.724 76.8693 85.3913 76.8693H98.8812C99.2664 76.8701 99.6289 76.6872 99.8571 76.3769C100.085 76.0665 100.152 75.666 100.036 75.2985C98.6927 71.0113 98.0112 68.9282 97.6729 67.9615Z" fill="#0E3A90"/>
    <path d="M95.0332 113.119C99.0373 113.119 102.283 109.873 102.283 105.869C102.283 101.865 99.0373 98.6193 95.0332 98.6193C91.0291 98.6193 87.7832 101.865 87.7832 105.869C87.7832 109.873 91.0291 113.119 95.0332 113.119Z" fill="#0E3A90"/>
    <path fill-rule="evenodd" clip-rule="evenodd" d="M61.0213 33.3693C61.0186 50.2059 47.3692 63.8532 30.5326 63.8532C13.6952 63.8372 0.0519378 50.1875 0.0439453 33.35C0.0519525 16.5135 13.7057 2.8705 30.5423 2.87584C47.3788 2.88118 61.0239 16.5328 61.0213 33.3693ZM38.5277 52.6146C46.3071 49.3795 51.3703 41.7752 51.3546 33.35C51.32 21.871 42.0117 12.5799 30.5326 12.5667C22.1074 12.5667 14.5125 17.644 11.2919 25.4294C8.07135 33.2148 9.85989 42.1737 15.823 48.1257C21.786 54.0777 30.7483 55.8496 38.5277 52.6146Z" fill="#B6584E"/>
    <path d="M30.5324 38.1833H39.4547C42.1241 38.1833 44.288 36.0194 44.288 33.35C44.288 30.6806 42.1241 28.5167 39.4547 28.5167H36.5547C35.8873 28.5167 35.3464 27.9757 35.3464 27.3083V22.2333C35.3464 19.564 33.1824 17.4 30.513 17.4C27.8436 17.4 25.6797 19.564 25.6797 22.2333V33.35C25.6797 34.6352 26.1916 35.8676 27.1022 36.7745C28.0128 37.6815 29.2471 38.1885 30.5324 38.1833Z" fill="#B6584E"/>
</svg>
