<svg width="24" height="24" viewBox="0 0 24 24" fill="none" xmlns="http://www.w3.org/2000/svg">
<path fill-rule="evenodd" clip-rule="evenodd" d="M16.855 15.09L23.384 21.619C23.8718 22.1074 23.8718 22.8986 23.384 23.387C22.8923 23.8667 22.1077 23.8667 21.616 23.387L15.087 16.858C11.1997 19.8152 5.68593 19.2547 2.47319 15.5758C-0.739552 11.897 -0.552444 6.35792 2.90123 2.90425C6.35491 -0.54943 11.8939 -0.736538 15.5728 2.4762C19.2517 5.68894 19.8122 11.2027 16.855 15.09ZM9.5 2.75001C5.77208 2.75001 2.75 5.77209 2.75 9.50001C2.75441 13.2261 5.77391 16.2456 9.5 16.25C13.2279 16.25 16.25 13.2279 16.25 9.50001C16.25 5.77209 13.2279 2.75001 9.5 2.75001Z" fill="#828489"/>
</svg>
