<svg width="256" height="256" viewBox="0 0 256 256" fill="none" xmlns="http://www.w3.org/2000/svg">
<rect width="256" height="256" fill="#F3562B"/>
<path d="M83 45.1548V20.9167C83 20.6865 83.1865 20.5 83.4167 20.5H87.6548C87.8758 20.5 88.0878 20.5878 88.2441 20.7441L178 110.5L212.756 75.7441C212.912 75.5878 213.124 75.5 213.345 75.5L237.583 75.5C237.813 75.5 238 75.6865 238 75.9167V80.1548C238 80.3758 237.912 80.5878 237.756 80.7441L143 175.5L177.756 210.256C177.912 210.412 178 210.624 178 210.845V235.083C178 235.313 177.813 235.5 177.583 235.5H173.345C173.124 235.5 172.912 235.412 172.756 235.256L93.2441 155.744C93.0878 155.588 93 155.376 93 155.155V135.845C93 135.624 93.0878 135.412 93.2441 135.256L97.7054 130.795C97.8681 130.632 98.1319 130.632 98.2946 130.795L128 160.5L163 125.5L128 90.5L43.2441 175.256C43.0878 175.412 42.8758 175.5 42.6548 175.5H18.4167C18.1865 175.5 18 175.313 18 175.083V170.845C18 170.624 18.0878 170.412 18.2441 170.256L113 75.5L83.2441 45.7441C83.0878 45.5878 83 45.3759 83 45.1548Z" fill="white"/>
</svg>
